<?xml version="1.0" encoding="utf-8"?>
<!-- Generator: Adobe Illustrator 28.2.0, SVG Export Plug-In . SVG Version: 6.00 Build 0)  -->
<svg version="1.1" id="Layer_1" xmlns="http://www.w3.org/2000/svg" xmlns:xlink="http://www.w3.org/1999/xlink" x="0px" y="0px"
	 viewBox="0 0 1080 1080" style="enable-background:new 0 0 1080 1080;" xml:space="preserve">
<g>
	<path d="M539.97,646.5c-81.67-0.34-160.62-13.61-234.27-50.8c-30.41-15.35-57.56-35.15-78.55-62.58
		c-9.69-12.66-14.79-25.3-12.01-42.48c8.55-52.79,14-106.09,22.67-158.86c11.99-72.99,77.36-126.85,151.24-127.46
		c48.21-0.4,93.91,9.86,137.34,30.33c9.44,4.45,17.63,4.53,27.11,0.08c43.09-20.25,88.37-30.72,136.22-30.42
		c79.28,0.49,145.71,60.53,154.83,139.3c5.98,51.68,13.55,103.17,20.88,154.68c1.17,8.2,0.02,14.99-4.16,21.94
		c-20.61,34.29-51.44,56.97-85.99,75c-50.03,26.1-103.84,39.8-159.58,46.79C590.55,645.17,565.36,647.04,539.97,646.5z"/>
	<path d="M550.33,875.53c-117.89,0.38-221.97-9.91-323.84-37.74c-53.3-14.56-104.84-33.53-150.22-66.25
		c-11.98-8.64-22.68-18.71-31.8-30.27c-22.06-27.95-21.7-59,0.86-86.58c13.15-16.07,29.21-28.81,46.79-39.71
		c22.21-13.78,45.79-24.74,70.08-34.29c5.21-2.05,9.45-2.9,10.11,4.53c4.89,54.81,37.41,91.89,79.57,122.15
		c47.64,34.19,101.77,53.57,158.73,64.95c101.23,20.23,201.98,17.96,301.47-10.69c54.14-15.59,104.56-38.97,145.69-78.82
		c27.33-26.49,46.71-57.4,49.77-96.55c0.48-6.1,2.78-8.65,9.28-6.02c40.67,16.44,80.25,34.67,111.28,67.06
		c31.62,33,31.65,69.16,0.21,102.33c-28.46,30.02-64.34,48.3-101.87,63.7c-59.74,24.51-122.26,38.79-185.86,48.33
		C673.39,871.72,605.77,876.69,550.33,875.53z"/>
	<path d="M540.27,752.33c-84.81-0.34-166.41-14.9-241.92-55.5c-33.06-17.78-62.29-40.26-81.2-73.76
		c-9.2-16.31-14.23-33.75-12.38-52.73c0.25-2.51,0.05-5.62,3.14-6.37c2.4-0.58,3.73,1.87,5.21,3.44
		c42.67,45.24,96.82,70.4,155.03,88.26c55.49,17.02,112.7,24.15,170.4,24.01c81.74-0.21,161.49-12.84,236.4-47.87
		c33.82-15.81,64.93-35.66,90.76-63.05c1.88-1.99,3.3-5.87,6.71-4.55c3.74,1.45,2.74,5.64,2.89,8.78
		c1.36,30.28-11.96,54.75-31.43,76.27c-30.31,33.5-69.06,54.14-110.64,69.84C671.11,742.59,606.59,752.64,540.27,752.33z"/>
</g>
</svg>
